<svg width="203" height="91" viewBox="0 0 203 91" fill="none" xmlns="http://www.w3.org/2000/svg">
<g clip-path="url(#clip0_203_2)">
<path d="M197 0H6C2.68629 0 0 2.68629 0 6V85C0 88.3137 2.68629 91 6 91H197C200.314 91 203 88.3137 203 85V6C203 2.68629 200.314 0 197 0Z" fill="white"/>
<mask id="mask0_203_2" style="mask-type:luminance" maskUnits="userSpaceOnUse" x="25" y="23" width="44" height="45">
<path d="M69 23.5H25V67.5H69V23.5Z" fill="white"/>
</mask>
<g mask="url(#mask0_203_2)">
<path d="M47 67.5C34.8721 67.5 25 57.6279 25 45.5C25 40.1396 26.9551 34.9619 30.5 30.9443C30.9727 30.4072 31.7891 30.3535 32.3262 30.8262C32.8633 31.2988 32.917 32.1152 32.4443 32.6523C29.3184 36.1973 27.5889 40.7627 27.5889 45.4892C27.5889 56.1885 36.3008 64.9004 47 64.9004C57.6992 64.9004 66.4111 56.1885 66.4111 45.4892C66.4111 34.79 57.6992 26.0889 47 26.0889C44.0674 26.0781 41.1777 26.7441 38.5459 28.0225C37.9014 28.334 37.1279 28.0654 36.8164 27.4209C36.5049 26.7764 36.7734 26.0029 37.418 25.6914C40.4043 24.2412 43.6807 23.4892 47 23.5C59.1279 23.5 69 33.3721 69 45.5C69 57.6279 59.1279 67.5 47 67.5Z" fill="#36496D"/>
<path d="M62.5332 45.5C62.5332 54.0723 55.583 61.0332 47 61.0332C38.417 61.0332 31.4668 54.0723 31.4668 45.5C31.4668 36.9277 38.4277 29.9668 47 29.9668C55.5723 29.9668 62.5332 36.9277 62.5332 45.5Z" fill="#E3A6B6"/>
<path d="M47 62.3223C37.7187 62.3223 30.1777 54.7812 30.1777 45.5C30.1777 36.2187 37.7187 28.6777 47 28.6777C56.2812 28.6777 63.8223 36.2187 63.8223 45.5C63.8223 54.7812 56.2812 62.3223 47 62.3223ZM47 31.2666C39.1475 31.2666 32.7666 37.6475 32.7666 45.5C32.7666 53.3525 39.1475 59.7334 47 59.7334C54.8525 59.7334 61.2334 53.3418 61.2334 45.5C61.2334 37.6582 54.8525 31.2666 47 31.2666Z" fill="#36496D"/>
<path d="M46.5811 50.001C45.6357 50.001 44.7334 49.625 44.0566 48.959L40.5762 45.4678C40.0713 44.9629 40.0713 44.1465 40.5762 43.6416C41.0811 43.1367 41.8975 43.1367 42.4023 43.6416L45.8936 47.1328C46.2803 47.5088 46.8926 47.5088 47.2686 47.1328L52.6182 41.7725C53.123 41.2676 53.9395 41.2676 54.4443 41.7725C54.9492 42.2773 54.9492 43.0937 54.4443 43.5986L49.1055 48.959C48.4395 49.625 47.5264 50.001 46.5811 50.001Z" fill="#36496D"/>
</g>
<path d="M94.0795 51H93.0227C92.9602 50.696 92.8509 50.429 92.6946 50.1989C92.5412 49.9688 92.3537 49.7756 92.1321 49.6193C91.9134 49.4602 91.6705 49.3409 91.4034 49.2614C91.1364 49.1818 90.858 49.142 90.5682 49.142C90.0398 49.142 89.5611 49.2756 89.1321 49.5426C88.706 49.8097 88.3665 50.2031 88.1136 50.723C87.8636 51.2429 87.7386 51.8807 87.7386 52.6364C87.7386 53.392 87.8636 54.0298 88.1136 54.5497C88.3665 55.0696 88.706 55.4631 89.1321 55.7301C89.5611 55.9972 90.0398 56.1307 90.5682 56.1307C90.858 56.1307 91.1364 56.0909 91.4034 56.0114C91.6705 55.9318 91.9134 55.8139 92.1321 55.6577C92.3537 55.4986 92.5412 55.304 92.6946 55.0739C92.8509 54.8409 92.9602 54.5739 93.0227 54.2727H94.0795C94 54.7187 93.8551 55.1179 93.6449 55.4702C93.4347 55.8224 93.1733 56.1222 92.8608 56.3693C92.5483 56.6136 92.1974 56.7997 91.8082 56.9276C91.4219 57.0554 91.0085 57.1193 90.5682 57.1193C89.8239 57.1193 89.1619 56.9375 88.5824 56.5739C88.0028 56.2102 87.5469 55.6932 87.2145 55.0227C86.8821 54.3523 86.7159 53.5568 86.7159 52.6364C86.7159 51.7159 86.8821 50.9205 87.2145 50.25C87.5469 49.5795 88.0028 49.0625 88.5824 48.6989C89.1619 48.3352 89.8239 48.1534 90.5682 48.1534C91.0085 48.1534 91.4219 48.2173 91.8082 48.3452C92.1974 48.473 92.5483 48.6605 92.8608 48.9077C93.1733 49.152 93.4347 49.4503 93.6449 49.8026C93.8551 50.152 94 50.5511 94.0795 51ZM98.31 57.1364C97.7191 57.1364 97.2006 56.9957 96.7546 56.7145C96.3114 56.4332 95.9648 56.0398 95.7148 55.5341C95.4677 55.0284 95.3441 54.4375 95.3441 53.7614C95.3441 53.0795 95.4677 52.4844 95.7148 51.9759C95.9648 51.4673 96.3114 51.0724 96.7546 50.7912C97.2006 50.5099 97.7191 50.3693 98.31 50.3693C98.9009 50.3693 99.418 50.5099 99.8612 50.7912C100.307 51.0724 100.654 51.4673 100.901 51.9759C101.151 52.4844 101.276 53.0795 101.276 53.7614C101.276 54.4375 101.151 55.0284 100.901 55.5341C100.654 56.0398 100.307 56.4332 99.8612 56.7145C99.418 56.9957 98.9009 57.1364 98.31 57.1364ZM98.31 56.233C98.7589 56.233 99.1282 56.1179 99.418 55.8878C99.7077 55.6577 99.9222 55.3551 100.061 54.9801C100.201 54.6051 100.27 54.1989 100.27 53.7614C100.27 53.3239 100.201 52.9162 100.061 52.5384C99.9222 52.1605 99.7077 51.8551 99.418 51.6222C99.1282 51.3892 98.7589 51.2727 98.31 51.2727C97.8612 51.2727 97.4918 51.3892 97.2021 51.6222C96.9123 51.8551 96.6978 52.1605 96.5586 52.5384C96.4194 52.9162 96.3498 53.3239 96.3498 53.7614C96.3498 54.1989 96.4194 54.6051 96.5586 54.9801C96.6978 55.3551 96.9123 55.6577 97.2021 55.8878C97.4918 56.1179 97.8612 56.233 98.31 56.233ZM105.283 57.1364C104.737 57.1364 104.256 56.9986 103.838 56.723C103.42 56.4446 103.094 56.0526 102.858 55.5469C102.622 55.0384 102.504 54.4375 102.504 53.7443C102.504 53.0568 102.622 52.4602 102.858 51.9545C103.094 51.4489 103.422 51.0582 103.842 50.7827C104.263 50.5071 104.749 50.3693 105.3 50.3693C105.726 50.3693 106.063 50.4403 106.31 50.5824C106.56 50.7216 106.75 50.8807 106.881 51.0597C107.014 51.2358 107.118 51.3807 107.192 51.4943H107.277V48.2727H108.283V57H107.311V55.9943H107.192C107.118 56.1136 107.013 56.2642 106.876 56.446C106.74 56.625 106.545 56.7855 106.293 56.9276C106.04 57.0668 105.703 57.1364 105.283 57.1364ZM105.419 56.233C105.822 56.233 106.163 56.1278 106.442 55.9176C106.72 55.7045 106.932 55.4105 107.077 55.0355C107.222 54.6577 107.294 54.2216 107.294 53.7273C107.294 53.2386 107.223 52.8111 107.081 52.4446C106.939 52.0753 106.729 51.7884 106.45 51.5838C106.172 51.3764 105.828 51.2727 105.419 51.2727C104.993 51.2727 104.638 51.3821 104.354 51.6009C104.072 51.8168 103.861 52.1108 103.719 52.483C103.58 52.8523 103.51 53.267 103.51 53.7273C103.51 54.1932 103.581 54.6165 103.723 54.9972C103.868 55.375 104.081 55.6761 104.362 55.9006C104.646 56.1222 104.999 56.233 105.419 56.233ZM110.264 57V50.4545H111.27V57H110.264ZM110.776 49.3636C110.58 49.3636 110.411 49.2969 110.268 49.1634C110.129 49.0298 110.06 48.8693 110.06 48.6818C110.06 48.4943 110.129 48.3338 110.268 48.2003C110.411 48.0668 110.58 48 110.776 48C110.972 48 111.139 48.0668 111.278 48.2003C111.42 48.3338 111.491 48.4943 111.491 48.6818C111.491 48.8693 111.42 49.0298 111.278 49.1634C111.139 49.2969 110.972 49.3636 110.776 49.3636ZM114.118 53.0625V57H113.112V50.4545H114.083V51.4773H114.169C114.322 51.1449 114.555 50.8778 114.868 50.6761C115.18 50.4716 115.583 50.3693 116.078 50.3693C116.521 50.3693 116.909 50.4602 117.241 50.642C117.574 50.821 117.832 51.0938 118.017 51.4602C118.201 51.8239 118.294 52.2841 118.294 52.8409V57H117.288V52.9091C117.288 52.3949 117.154 51.9943 116.887 51.7074C116.62 51.4176 116.254 51.2727 115.788 51.2727C115.467 51.2727 115.18 51.3423 114.927 51.4815C114.677 51.6207 114.48 51.8239 114.335 52.0909C114.19 52.358 114.118 52.6818 114.118 53.0625ZM122.773 59.5909C122.288 59.5909 121.87 59.5284 121.521 59.4034C121.171 59.2812 120.88 59.1193 120.647 58.9176C120.417 58.7188 120.234 58.5057 120.097 58.2784L120.898 57.7159C120.989 57.8352 121.104 57.9716 121.244 58.125C121.383 58.2812 121.573 58.4162 121.815 58.5298C122.059 58.6463 122.379 58.7045 122.773 58.7045C123.302 58.7045 123.738 58.5767 124.082 58.321C124.425 58.0653 124.597 57.6648 124.597 57.1193V55.7898H124.512C124.438 55.9091 124.333 56.0568 124.197 56.233C124.063 56.4062 123.87 56.5611 123.617 56.6974C123.367 56.831 123.029 56.8977 122.603 56.8977C122.075 56.8977 121.6 56.7727 121.18 56.5227C120.762 56.2727 120.431 55.9091 120.187 55.4318C119.945 54.9545 119.825 54.375 119.825 53.6932C119.825 53.0227 119.942 52.4389 120.178 51.9418C120.414 51.4418 120.742 51.0554 121.163 50.7827C121.583 50.5071 122.069 50.3693 122.62 50.3693C123.046 50.3693 123.384 50.4403 123.634 50.5824C123.887 50.7216 124.08 50.8807 124.214 51.0597C124.35 51.2358 124.455 51.3807 124.529 51.4943H124.631V50.4545H125.603V57.1875C125.603 57.75 125.475 58.2074 125.219 58.5597C124.967 58.9148 124.626 59.1747 124.197 59.3395C123.771 59.5071 123.296 59.5909 122.773 59.5909ZM122.739 55.9943C123.143 55.9943 123.484 55.902 123.762 55.7173C124.04 55.5327 124.252 55.267 124.397 54.9205C124.542 54.5739 124.614 54.1591 124.614 53.6761C124.614 53.2045 124.543 52.7884 124.401 52.4276C124.259 52.0668 124.049 51.7841 123.771 51.5795C123.492 51.375 123.148 51.2727 122.739 51.2727C122.313 51.2727 121.958 51.3807 121.674 51.5966C121.393 51.8125 121.181 52.1023 121.039 52.4659C120.9 52.8295 120.83 53.233 120.83 53.6761C120.83 54.1307 120.901 54.5327 121.043 54.8821C121.188 55.2287 121.401 55.5014 121.683 55.7003C121.967 55.8963 122.319 55.9943 122.739 55.9943ZM130.955 57V48.2727H133.904C134.589 48.2727 135.148 48.3963 135.583 48.6435C136.021 48.8878 136.344 49.2188 136.555 49.6364C136.765 50.054 136.87 50.5199 136.87 51.0341C136.87 51.5483 136.765 52.0156 136.555 52.4361C136.347 52.8565 136.026 53.1918 135.592 53.4418C135.157 53.6889 134.6 53.8125 133.921 53.8125H131.808V52.875H133.887C134.356 52.875 134.732 52.794 135.016 52.6321C135.3 52.4702 135.506 52.2514 135.634 51.9759C135.765 51.6974 135.83 51.3835 135.83 51.0341C135.83 50.6847 135.765 50.3722 135.634 50.0966C135.506 49.821 135.299 49.6051 135.012 49.4489C134.725 49.2898 134.344 49.2102 133.87 49.2102H132.012V57H130.955ZM138.436 57V50.4545H139.408V51.4432H139.476C139.595 51.1193 139.811 50.8565 140.124 50.6548C140.436 50.4531 140.788 50.3523 141.18 50.3523C141.254 50.3523 141.347 50.3537 141.457 50.3565C141.568 50.3594 141.652 50.3636 141.709 50.3693V51.392C141.675 51.3835 141.597 51.3707 141.474 51.3537C141.355 51.3338 141.229 51.3239 141.095 51.3239C140.777 51.3239 140.493 51.3906 140.243 51.5241C139.996 51.6548 139.8 51.8366 139.655 52.0696C139.513 52.2997 139.442 52.5625 139.442 52.858V57H138.436ZM145.361 57.1364C144.77 57.1364 144.251 56.9957 143.805 56.7145C143.362 56.4332 143.016 56.0398 142.766 55.5341C142.518 55.0284 142.395 54.4375 142.395 53.7614C142.395 53.0795 142.518 52.4844 142.766 51.9759C143.016 51.4673 143.362 51.0724 143.805 50.7912C144.251 50.5099 144.77 50.3693 145.361 50.3693C145.952 50.3693 146.469 50.5099 146.912 50.7912C147.358 51.0724 147.705 51.4673 147.952 51.9759C148.202 52.4844 148.327 53.0795 148.327 53.7614C148.327 54.4375 148.202 55.0284 147.952 55.5341C147.705 56.0398 147.358 56.4332 146.912 56.7145C146.469 56.9957 145.952 57.1364 145.361 57.1364ZM145.361 56.233C145.81 56.233 146.179 56.1179 146.469 55.8878C146.759 55.6577 146.973 55.3551 147.112 54.9801C147.251 54.6051 147.321 54.1989 147.321 53.7614C147.321 53.3239 147.251 52.9162 147.112 52.5384C146.973 52.1605 146.759 51.8551 146.469 51.6222C146.179 51.3892 145.81 51.2727 145.361 51.2727C144.912 51.2727 144.543 51.3892 144.253 51.6222C143.963 51.8551 143.749 52.1605 143.609 52.5384C143.47 52.9162 143.401 53.3239 143.401 53.7614C143.401 54.1989 143.47 54.6051 143.609 54.9801C143.749 55.3551 143.963 55.6577 144.253 55.8878C144.543 56.1179 144.912 56.233 145.361 56.233ZM149.998 57V48.2727H151.004V51.4943H151.089C151.163 51.3807 151.265 51.2358 151.396 51.0597C151.529 50.8807 151.72 50.7216 151.967 50.5824C152.217 50.4403 152.555 50.3693 152.981 50.3693C153.532 50.3693 154.018 50.5071 154.439 50.7827C154.859 51.0582 155.187 51.4489 155.423 51.9545C155.659 52.4602 155.777 53.0568 155.777 53.7443C155.777 54.4375 155.659 55.0384 155.423 55.5469C155.187 56.0526 154.86 56.4446 154.443 56.723C154.025 56.9986 153.544 57.1364 152.998 57.1364C152.578 57.1364 152.241 57.0668 151.988 56.9276C151.735 56.7855 151.541 56.625 151.404 56.446C151.268 56.2642 151.163 56.1136 151.089 55.9943H150.97V57H149.998ZM150.987 53.7273C150.987 54.2216 151.059 54.6577 151.204 55.0355C151.349 55.4105 151.561 55.7045 151.839 55.9176C152.118 56.1278 152.458 56.233 152.862 56.233C153.282 56.233 153.633 56.1222 153.914 55.9006C154.199 55.6761 154.412 55.375 154.554 54.9972C154.699 54.6165 154.771 54.1932 154.771 53.7273C154.771 53.267 154.7 52.8523 154.558 52.483C154.419 52.1108 154.207 51.8168 153.923 51.6009C153.642 51.3821 153.288 51.2727 152.862 51.2727C152.453 51.2727 152.109 51.3764 151.831 51.5838C151.552 51.7884 151.342 52.0753 151.2 52.4446C151.058 52.8111 150.987 53.2386 150.987 53.7273ZM158.321 48.2727V57H157.315V48.2727H158.321ZM162.907 57.1364C162.276 57.1364 161.732 56.9972 161.275 56.7188C160.82 56.4375 160.469 56.0455 160.222 55.5426C159.978 55.0369 159.856 54.4489 159.856 53.7784C159.856 53.108 159.978 52.517 160.222 52.0057C160.469 51.4915 160.813 51.0909 161.254 50.804C161.697 50.5142 162.214 50.3693 162.805 50.3693C163.146 50.3693 163.482 50.4261 163.815 50.5398C164.147 50.6534 164.45 50.8381 164.722 51.0938C164.995 51.3466 165.212 51.6818 165.374 52.0994C165.536 52.517 165.617 53.0312 165.617 53.642V54.0682H160.572V53.1989H164.594C164.594 52.8295 164.521 52.5 164.373 52.2102C164.228 51.9205 164.021 51.6918 163.751 51.5241C163.484 51.3565 163.168 51.2727 162.805 51.2727C162.404 51.2727 162.058 51.3722 161.765 51.571C161.475 51.767 161.252 52.0227 161.096 52.3381C160.94 52.6534 160.862 52.9915 160.862 53.3523V53.9318C160.862 54.4261 160.947 54.8452 161.117 55.1889C161.29 55.5298 161.531 55.7898 161.837 55.9688C162.144 56.1449 162.501 56.233 162.907 56.233C163.171 56.233 163.41 56.196 163.623 56.1222C163.839 56.0455 164.025 55.9318 164.181 55.7812C164.337 55.6278 164.458 55.4375 164.543 55.2102L165.515 55.483C165.413 55.8125 165.241 56.1023 164.999 56.3523C164.758 56.5994 164.46 56.7926 164.104 56.9318C163.749 57.0682 163.35 57.1364 162.907 57.1364ZM167.147 57V50.4545H168.119V51.4773H168.204C168.34 51.1278 168.56 50.8565 168.864 50.6634C169.168 50.4673 169.533 50.3693 169.96 50.3693C170.391 50.3693 170.751 50.4673 171.038 50.6634C171.327 50.8565 171.553 51.1278 171.715 51.4773H171.783C171.951 51.1392 172.202 50.8707 172.538 50.6719C172.873 50.4702 173.275 50.3693 173.744 50.3693C174.329 50.3693 174.808 50.5526 175.18 50.919C175.552 51.2827 175.738 51.8494 175.738 52.6193V57H174.732V52.6193C174.732 52.1364 174.6 51.7912 174.336 51.5838C174.072 51.3764 173.761 51.2727 173.403 51.2727C172.942 51.2727 172.586 51.4119 172.333 51.6903C172.08 51.9659 171.954 52.3153 171.954 52.7386V57H170.931V52.517C170.931 52.1449 170.81 51.8452 170.569 51.6179C170.327 51.3878 170.016 51.2727 169.636 51.2727C169.374 51.2727 169.13 51.3423 168.903 51.4815C168.678 51.6207 168.496 51.8139 168.357 52.0611C168.221 52.3054 168.153 52.5881 168.153 52.9091V57H167.147ZM182.213 51.9205L181.31 52.1761C181.253 52.0256 181.169 51.8793 181.058 51.7372C180.95 51.5923 180.803 51.473 180.615 51.3793C180.428 51.2855 180.188 51.2386 179.895 51.2386C179.494 51.2386 179.161 51.331 178.893 51.5156C178.629 51.6974 178.497 51.929 178.497 52.2102C178.497 52.4602 178.588 52.6577 178.77 52.8026C178.952 52.9474 179.236 53.0682 179.622 53.1648L180.594 53.4034C181.179 53.5455 181.615 53.7628 181.902 54.0554C182.189 54.3452 182.332 54.7187 182.332 55.1761C182.332 55.5511 182.224 55.8864 182.009 56.1818C181.795 56.4773 181.497 56.7102 181.114 56.8807C180.73 57.0511 180.284 57.1364 179.776 57.1364C179.108 57.1364 178.555 56.9915 178.118 56.7017C177.68 56.4119 177.403 55.9886 177.287 55.4318L178.241 55.1932C178.332 55.5455 178.504 55.8097 178.757 55.9858C179.013 56.1619 179.347 56.25 179.759 56.25C180.227 56.25 180.599 56.1506 180.875 55.9517C181.153 55.75 181.293 55.5085 181.293 55.2273C181.293 55 181.213 54.8097 181.054 54.6562C180.895 54.5 180.651 54.3835 180.321 54.3068L179.23 54.0511C178.631 53.9091 178.19 53.6889 177.909 53.3906C177.631 53.0895 177.491 52.7131 177.491 52.2614C177.491 51.892 177.595 51.5653 177.803 51.2812C178.013 50.9972 178.298 50.7741 178.659 50.6122C179.023 50.4503 179.435 50.3693 179.895 50.3693C180.543 50.3693 181.051 50.5114 181.42 50.7955C181.793 51.0795 182.057 51.4545 182.213 51.9205ZM89.75 72H87.0568V63.2727H89.8693C90.7159 63.2727 91.4403 63.4474 92.0426 63.7969C92.6449 64.1435 93.1065 64.642 93.4276 65.2926C93.7486 65.9403 93.9091 66.7159 93.9091 67.6193C93.9091 68.5284 93.7472 69.3111 93.4233 69.9673C93.0994 70.6207 92.6278 71.1236 92.0085 71.4759C91.3892 71.8253 90.6364 72 89.75 72ZM88.1136 71.0625H89.6818C90.4034 71.0625 91.0014 70.9233 91.4759 70.6449C91.9503 70.3665 92.304 69.9702 92.5369 69.456C92.7699 68.9418 92.8864 68.3295 92.8864 67.6193C92.8864 66.9148 92.7713 66.3082 92.5412 65.7997C92.3111 65.2884 91.9673 64.8963 91.5099 64.6236C91.0526 64.348 90.483 64.2102 89.8011 64.2102H88.1136V71.0625ZM98.2045 72.1364C97.6136 72.1364 97.0952 71.9957 96.6491 71.7145C96.206 71.4332 95.8594 71.0398 95.6094 70.5341C95.3622 70.0284 95.2386 69.4375 95.2386 68.7614C95.2386 68.0795 95.3622 67.4844 95.6094 66.9759C95.8594 66.4673 96.206 66.0724 96.6491 65.7912C97.0952 65.5099 97.6136 65.3693 98.2045 65.3693C98.7955 65.3693 99.3125 65.5099 99.7557 65.7912C100.202 66.0724 100.548 66.4673 100.795 66.9759C101.045 67.4844 101.17 68.0795 101.17 68.7614C101.17 69.4375 101.045 70.0284 100.795 70.5341C100.548 71.0398 100.202 71.4332 99.7557 71.7145C99.3125 71.9957 98.7955 72.1364 98.2045 72.1364ZM98.2045 71.233C98.6534 71.233 99.0227 71.1179 99.3125 70.8878C99.6023 70.6577 99.8168 70.3551 99.956 69.9801C100.095 69.6051 100.165 69.1989 100.165 68.7614C100.165 68.3239 100.095 67.9162 99.956 67.5384C99.8168 67.1605 99.6023 66.8551 99.3125 66.6222C99.0227 66.3892 98.6534 66.2727 98.2045 66.2727C97.7557 66.2727 97.3864 66.3892 97.0966 66.6222C96.8068 66.8551 96.5923 67.1605 96.4531 67.5384C96.3139 67.9162 96.2443 68.3239 96.2443 68.7614C96.2443 69.1989 96.3139 69.6051 96.4531 69.9801C96.5923 70.3551 96.8068 70.6577 97.0966 70.8878C97.3864 71.1179 97.7557 71.233 98.2045 71.233ZM103.711 68.0625V72H102.706V65.4545H103.677V66.4773H103.762C103.916 66.1449 104.149 65.8778 104.461 65.6761C104.774 65.4716 105.177 65.3693 105.672 65.3693C106.115 65.3693 106.502 65.4602 106.835 65.642C107.167 65.821 107.426 66.0938 107.61 66.4602C107.795 66.8239 107.887 67.2841 107.887 67.8409V72H106.882V67.9091C106.882 67.3949 106.748 66.9943 106.481 66.7074C106.214 66.4176 105.848 66.2727 105.382 66.2727C105.061 66.2727 104.774 66.3423 104.521 66.4815C104.271 66.6207 104.074 66.8239 103.929 67.0909C103.784 67.358 103.711 67.6818 103.711 68.0625ZM112.469 72.1364C111.839 72.1364 111.295 71.9972 110.837 71.7188C110.383 71.4375 110.032 71.0455 109.785 70.5426C109.54 70.0369 109.418 69.4489 109.418 68.7784C109.418 68.108 109.54 67.517 109.785 67.0057C110.032 66.4915 110.376 66.0909 110.816 65.804C111.259 65.5142 111.776 65.3693 112.367 65.3693C112.708 65.3693 113.045 65.4261 113.377 65.5398C113.71 65.6534 114.012 65.8381 114.285 66.0938C114.558 66.3466 114.775 66.6818 114.937 67.0994C115.099 67.517 115.18 68.0312 115.18 68.642V69.0682H110.134V68.1989H114.157C114.157 67.8295 114.083 67.5 113.935 67.2102C113.79 66.9205 113.583 66.6918 113.313 66.5241C113.046 66.3565 112.731 66.2727 112.367 66.2727C111.967 66.2727 111.62 66.3722 111.327 66.571C111.038 66.767 110.815 67.0227 110.658 67.3381C110.502 67.6534 110.424 67.9915 110.424 68.3523V68.9318C110.424 69.4261 110.509 69.8452 110.68 70.1889C110.853 70.5298 111.093 70.7898 111.4 70.9688C111.707 71.1449 112.063 71.233 112.469 71.233C112.734 71.233 112.972 71.196 113.185 71.1222C113.401 71.0455 113.587 70.9318 113.744 70.7812C113.9 70.6278 114.021 70.4375 114.106 70.2102L115.077 70.483C114.975 70.8125 114.803 71.1023 114.562 71.3523C114.32 71.5994 114.022 71.7926 113.667 71.9318C113.312 72.0682 112.913 72.1364 112.469 72.1364Z" fill="#60697B"/>
<path d="M92.8832 39.2088C91.7695 39.2088 90.7777 39.0174 89.9077 38.6346C89.0426 38.2468 88.359 37.7148 87.8569 37.0387C87.3597 36.3576 87.1037 35.5721 87.0888 34.6822H90.3402C90.3601 35.055 90.4819 35.3832 90.7056 35.6665C90.9343 35.945 91.2376 36.1612 91.6154 36.3153C91.9933 36.4695 92.4183 36.5465 92.8906 36.5465C93.3828 36.5465 93.8178 36.4595 94.1957 36.2855C94.5735 36.1115 94.8693 35.8704 95.0831 35.5621C95.2969 35.2539 95.4038 34.8984 95.4038 34.4957C95.4038 34.0881 95.2894 33.7276 95.0607 33.4144C94.837 33.0962 94.5138 32.8477 94.0913 32.6687C93.6737 32.4897 93.1765 32.4002 92.5998 32.4002H91.1754V30.0288H92.5998C93.087 30.0288 93.517 29.9442 93.8899 29.7752C94.2678 29.6062 94.5611 29.3725 94.7699 29.0742C94.9787 28.771 95.0831 28.418 95.0831 28.0153C95.0831 27.6325 94.9911 27.2969 94.8072 27.0085C94.6282 26.7152 94.3746 26.4865 94.0465 26.3224C93.7234 26.1584 93.3455 26.0763 92.913 26.0763C92.4755 26.0763 92.0753 26.1559 91.7124 26.315C91.3494 26.4691 91.0586 26.6903 90.8398 26.9787C90.6211 27.267 90.5043 27.6051 90.4893 27.9929H87.3945C87.4094 27.1129 87.6605 26.3374 88.1477 25.6662C88.6349 24.995 89.2912 24.4705 90.1165 24.0927C90.9467 23.7099 91.8839 23.5185 92.9279 23.5185C93.9819 23.5185 94.9041 23.7099 95.6946 24.0927C96.4851 24.4755 97.0991 24.9925 97.5366 25.6438C97.979 26.2901 98.1978 27.016 98.1928 27.8214C98.1978 28.6765 97.9318 29.3899 97.3949 29.9616C96.8629 30.5334 96.1694 30.8963 95.3143 31.0504V31.1697C96.4379 31.3139 97.293 31.7042 97.8796 32.3406C98.4712 32.9719 98.7646 33.7624 98.7596 34.712C98.7646 35.582 98.5135 36.3551 98.0064 37.0312C97.5043 37.7074 96.8107 38.2393 95.9258 38.6271C95.0408 39.0149 94.0266 39.2088 92.8832 39.2088ZM106.659 39.2088C105.605 39.2088 104.665 39.0149 103.84 38.6271C103.02 38.2393 102.368 37.7049 101.886 37.0238C101.404 36.3427 101.153 35.5621 101.133 34.6822H104.265C104.3 35.2738 104.548 35.7536 105.011 36.1214C105.473 36.4893 106.022 36.6733 106.659 36.6733C107.166 36.6733 107.613 36.5614 108.001 36.3377C108.394 36.109 108.7 35.7933 108.918 35.3906C109.142 34.983 109.254 34.5156 109.254 33.9886C109.254 33.4517 109.14 32.9794 108.911 32.5717C108.687 32.1641 108.377 31.8459 107.979 31.6172C107.581 31.3885 107.126 31.2717 106.614 31.2667C106.167 31.2667 105.732 31.3587 105.309 31.5426C104.891 31.7266 104.566 31.9776 104.332 32.2958L101.461 31.7812L102.184 23.7273H111.521V26.3672H104.847L104.451 30.1928H104.541C104.809 29.815 105.215 29.5018 105.756 29.2532C106.298 29.0046 106.905 28.8803 107.576 28.8803C108.496 28.8803 109.316 29.0966 110.037 29.5291C110.758 29.9616 111.327 30.5558 111.745 31.3114C112.162 32.0621 112.369 32.9272 112.364 33.9066C112.369 34.9357 112.13 35.8505 111.648 36.6509C111.171 37.4464 110.502 38.0728 109.642 38.5302C108.787 38.9826 107.792 39.2088 106.659 39.2088ZM120.604 39.3356C119.321 39.3306 118.218 39.0149 117.293 38.3885C116.373 37.7621 115.665 36.8548 115.168 35.6665C114.676 34.4783 114.432 33.049 114.437 31.3786C114.437 29.7131 114.683 28.2937 115.175 27.1204C115.672 25.9471 116.381 25.0547 117.301 24.4432C118.225 23.8267 119.326 23.5185 120.604 23.5185C121.882 23.5185 122.981 23.8267 123.9 24.4432C124.825 25.0597 125.536 25.9545 126.033 27.1278C126.53 28.2962 126.776 29.7131 126.771 31.3786C126.771 33.054 126.523 34.4858 126.026 35.674C125.533 36.8622 124.828 37.7695 123.908 38.396C122.988 39.0224 121.887 39.3356 120.604 39.3356ZM120.604 36.6584C121.479 36.6584 122.178 36.2184 122.7 35.3384C123.222 34.4585 123.48 33.1385 123.475 31.3786C123.475 30.2202 123.356 29.2557 123.117 28.4851C122.884 27.7145 122.551 27.1353 122.118 26.7475C121.69 26.3597 121.186 26.1658 120.604 26.1658C119.734 26.1658 119.038 26.6009 118.516 27.4709C117.994 28.3409 117.731 29.6435 117.726 31.3786C117.726 32.5518 117.842 33.5312 118.076 34.3168C118.315 35.0973 118.65 35.6839 119.083 36.0767C119.515 36.4645 120.022 36.6584 120.604 36.6584ZM133.638 36.6733V26.1136H136.308V36.6733H133.638ZM129.693 32.7283V30.0586H140.252V32.7283H129.693Z" fill="#343F52"/>
</g>
<defs>
<clipPath id="clip0_203_2">
<rect width="203" height="91" fill="white"/>
</clipPath>
</defs>
</svg>
