<svg width="77" height="26" viewBox="0 0 77 26" fill="none" xmlns="http://www.w3.org/2000/svg">
<path d="M10.4435 7.04723C10.3725 6.33108 10.0677 5.77474 9.52912 5.3782C8.99053 4.98165 8.25959 4.78338 7.33629 4.78338C6.70893 4.78338 6.17921 4.87216 5.74716 5.04972C5.3151 5.22135 4.98366 5.46106 4.75284 5.76882C4.52794 6.07659 4.41548 6.42578 4.41548 6.81641C4.40365 7.14193 4.47171 7.42602 4.61967 7.66868C4.77356 7.91134 4.98366 8.12145 5.25 8.29901C5.51634 8.47064 5.8241 8.62157 6.1733 8.75178C6.52249 8.87607 6.89536 8.9826 7.2919 9.07138L8.92543 9.462C9.71851 9.63956 10.4465 9.8763 11.1094 10.1722C11.7723 10.4682 12.3464 10.8321 12.8317 11.2642C13.317 11.6963 13.6928 12.2053 13.9592 12.7912C14.2314 13.3771 14.3705 14.0489 14.3764 14.8065C14.3705 15.9192 14.0864 16.8839 13.5241 17.7006C12.9678 18.5115 12.1629 19.1418 11.1094 19.5916C10.0618 20.0355 8.79818 20.2575 7.31854 20.2575C5.85073 20.2575 4.57232 20.0326 3.48331 19.5827C2.40021 19.1329 1.55386 18.4671 0.944247 17.5852C0.340554 16.6974 0.023911 15.5996 -0.00568184 14.2915H3.71413C3.75556 14.9012 3.93016 15.4102 4.23793 15.8185C4.55161 16.221 4.96887 16.5258 5.4897 16.733C6.01645 16.9342 6.61127 17.0348 7.27415 17.0348C7.92519 17.0348 8.49041 16.9401 8.96982 16.7507C9.45514 16.5613 9.83097 16.2979 10.0973 15.9606C10.3636 15.6232 10.4968 15.2356 10.4968 14.7976C10.4968 14.3892 10.3755 14.0459 10.1328 13.7678C9.89607 13.4896 9.54688 13.2528 9.08523 13.0575C8.6295 12.8622 8.07019 12.6847 7.40732 12.5249L5.42756 12.0277C3.89465 11.6548 2.6843 11.0719 1.79652 10.2788C0.908736 9.48568 0.467803 8.41738 0.473722 7.07386C0.467803 5.97301 0.760772 5.01124 1.35263 4.18857C1.9504 3.36589 2.77012 2.72372 3.81179 2.26207C4.85346 1.80043 6.03717 1.5696 7.36293 1.5696C8.71236 1.5696 9.89015 1.80043 10.8963 2.26207C11.9084 2.72372 12.6955 3.36589 13.2578 4.18857C13.8201 5.01124 14.1101 5.96413 14.1278 7.04723H10.4435ZM20.673 12.1165V20H16.8911V1.81818H20.5665V8.76953H20.7263C21.0341 7.96461 21.5312 7.33428 22.2178 6.87855C22.9043 6.4169 23.7655 6.18608 24.8012 6.18608C25.7482 6.18608 26.5738 6.39323 27.2781 6.80753C27.9884 7.21591 28.5388 7.80481 28.9294 8.57422C29.326 9.33771 29.5213 10.2521 29.5154 11.3175V20H25.7334V11.9922C25.7393 11.1518 25.5262 10.4978 25.0942 10.0302C24.6681 9.56262 24.0703 9.32884 23.3009 9.32884C22.786 9.32884 22.3302 9.43833 21.9337 9.65731C21.5431 9.8763 21.2353 10.1959 21.0104 10.6161C20.7914 11.0304 20.6789 11.5305 20.673 12.1165ZM32.4917 20V6.36364H36.2736V20H32.4917ZM34.3915 4.60582C33.8292 4.60582 33.3469 4.41939 32.9444 4.04652C32.5479 3.66773 32.3496 3.21496 32.3496 2.68821C32.3496 2.16738 32.5479 1.72053 32.9444 1.34766C33.3469 0.968868 33.8292 0.779473 34.3915 0.779473C34.9538 0.779473 35.4332 0.968868 35.8297 1.34766C36.2322 1.72053 36.4334 2.16738 36.4334 2.68821C36.4334 3.21496 36.2322 3.66773 35.8297 4.04652C35.4332 4.41939 34.9538 4.60582 34.3915 4.60582ZM39.3032 25.1136V6.36364H43.0319V8.65412H43.2006C43.3663 8.28717 43.606 7.9143 43.9197 7.53551C44.2393 7.1508 44.6536 6.8312 45.1626 6.5767C45.6775 6.31629 46.3167 6.18608 47.0802 6.18608C48.0745 6.18608 48.9919 6.4465 49.8323 6.96733C50.6727 7.48224 51.3445 8.26053 51.8476 9.3022C52.3506 10.3379 52.6022 11.6371 52.6022 13.1996C52.6022 14.7206 52.3566 16.005 51.8653 17.0526C51.38 18.0942 50.7171 18.8844 49.8767 19.4229C49.0422 19.9556 48.107 20.2219 47.0713 20.2219C46.3374 20.2219 45.713 20.1006 45.1981 19.858C44.6891 19.6153 44.2718 19.3105 43.9463 18.9435C43.6208 18.5707 43.3722 18.1948 43.2006 17.8161H43.0851V25.1136H39.3032ZM43.0052 13.1818C43.0052 13.9927 43.1177 14.6999 43.3426 15.3036C43.5675 15.9073 43.893 16.3778 44.3192 16.7152C44.7453 17.0466 45.2632 17.2124 45.8728 17.2124C46.4883 17.2124 47.0091 17.0437 47.4353 16.7063C47.8614 16.363 48.184 15.8896 48.403 15.2859C48.6279 14.6763 48.7403 13.9749 48.7403 13.1818C48.7403 12.3946 48.6308 11.7022 48.4118 11.1044C48.1929 10.5066 47.8703 10.0391 47.4442 9.7017C47.018 9.36435 46.4942 9.19567 45.8728 9.19567C45.2573 9.19567 44.7364 9.35843 44.3103 9.68395C43.8901 10.0095 43.5675 10.4711 43.3426 11.0689C43.1177 11.6667 43.0052 12.371 43.0052 13.1818ZM55.1235 20V6.36364H58.79V8.7429H58.9321C59.1807 7.89654 59.5979 7.25734 60.1839 6.82528C60.7698 6.38731 61.4445 6.16832 62.208 6.16832C62.3974 6.16832 62.6016 6.18016 62.8206 6.20383C63.0396 6.22751 63.2319 6.26006 63.3976 6.30149V9.65731C63.2201 9.60405 62.9745 9.5567 62.6608 9.51527C62.3471 9.47384 62.06 9.45312 61.7996 9.45312C61.2433 9.45312 60.7461 9.57446 60.3081 9.81712C59.8761 10.0539 59.5328 10.3853 59.2783 10.8114C59.0297 11.2376 58.9055 11.7288 58.9055 12.2852V20H55.1235ZM68.8509 20.2575C67.9808 20.2575 67.2055 20.1065 66.5249 19.8047C65.8442 19.4969 65.3056 19.0442 64.9091 18.4464C64.5185 17.8427 64.3232 17.091 64.3232 16.1914C64.3232 15.4338 64.4622 14.7976 64.7404 14.2827C65.0186 13.7678 65.3974 13.3535 65.8768 13.0398C66.3562 12.7261 66.9007 12.4893 67.5103 12.3295C68.1258 12.1697 68.771 12.0573 69.4457 11.9922C70.2388 11.9093 70.878 11.8324 71.3633 11.7614C71.8486 11.6844 72.2008 11.572 72.4197 11.424C72.6387 11.276 72.7482 11.0571 72.7482 10.767V10.7138C72.7482 10.1515 72.5707 9.7165 72.2156 9.40874C71.8664 9.10097 71.3692 8.94709 70.7241 8.94709C70.0434 8.94709 69.5019 9.09801 69.0994 9.39986C68.697 9.69579 68.4306 10.0687 68.3004 10.5185L64.8026 10.2344C64.9801 9.40578 65.3293 8.68963 65.8501 8.08594C66.371 7.47633 67.0427 7.00876 67.8654 6.68324C68.694 6.3518 69.6528 6.18608 70.7418 6.18608C71.4994 6.18608 72.2244 6.27486 72.9169 6.45241C73.6153 6.62997 74.2338 6.90518 74.7724 7.27805C75.3169 7.65092 75.746 8.13033 76.0597 8.71626C76.3733 9.29628 76.5302 9.99171 76.5302 10.8026V20H72.9435V18.109H72.837C72.618 18.5352 72.325 18.911 71.9581 19.2365C71.5911 19.5561 71.1502 19.8076 70.6353 19.9911C70.1204 20.1687 69.5256 20.2575 68.8509 20.2575ZM69.9339 17.6474C70.4903 17.6474 70.9815 17.5379 71.4077 17.3189C71.8338 17.094 72.1682 16.7921 72.4109 16.4134C72.6535 16.0346 72.7749 15.6055 72.7749 15.1261V13.679C72.6565 13.7559 72.4937 13.8269 72.2866 13.892C72.0853 13.9512 71.8575 14.0075 71.603 14.0607C71.3485 14.1081 71.094 14.1525 70.8395 14.1939C70.585 14.2294 70.3542 14.262 70.147 14.2915C69.7031 14.3567 69.3155 14.4602 68.984 14.6023C68.6526 14.7443 68.3951 14.9367 68.2116 15.1793C68.0282 15.4161 67.9364 15.712 67.9364 16.0671C67.9364 16.582 68.1229 16.9756 68.4957 17.2479C68.8745 17.5142 69.3539 17.6474 69.9339 17.6474Z" fill="#343F52"/>
</svg>
